<svg width="20" height="20" viewBox="0 0 20 20" fill="none" xmlns="http://www.w3.org/2000/svg">
<path fill-rule="evenodd" clip-rule="evenodd" d="M15.7517 10.8263C16.5618 9.42311 14.0281 6.44291 10.0924 4.17053C6.15552 1.89819 2.30841 1.19378 1.49834 2.59694C1.04841 3.37409 0.599625 4.15237 0.150836 4.93065C-0.659242 6.33385 1.87443 9.31287 5.81127 11.5853C9.74701 13.8576 13.5952 14.5632 14.4053 13.16C14.8541 12.3817 15.3029 11.6046 15.7517 10.8263Z" fill="#DDDDDD"/>
<path fill-rule="evenodd" clip-rule="evenodd" d="M10.0923 4.17057C6.15544 1.89819 2.30833 1.19377 1.49825 2.59694C0.68817 3.99897 3.22184 6.97916 7.15868 9.25155C11.0944 11.5239 14.9426 12.2295 15.7516 10.8263C16.5617 9.42311 14.028 6.44291 10.0923 4.17057Z" fill="#EFEFEF"/>
<path fill-rule="evenodd" clip-rule="evenodd" d="M9.40608 5.35807C6.27475 3.55037 3.38659 2.6903 2.95483 3.43791C2.52421 4.18553 4.71249 6.25678 7.84382 8.06444C10.9751 9.87209 13.8633 10.7322 14.295 9.98459C14.7268 9.23811 12.5374 7.16686 9.40608 5.35807Z" fill="#DDDDDD"/>
<path d="M12.8023 12.894L12.2376 13.8711C11.9979 13.8563 11.7423 13.8279 11.4752 13.7847L12.1933 12.5406L12.8023 12.894ZM4.43433 10.725C4.62636 10.8545 4.82292 10.9829 5.02401 11.109L5.6762 9.97966L5.06722 9.6297L4.43433 10.725ZM0.61792 7.16192C0.75085 7.36306 0.903115 7.56981 1.07468 7.78001L1.79276 6.53704L1.18265 6.18481L0.61792 7.16192ZM2.40515 9.15364C2.57897 9.30817 2.75964 9.46384 2.94823 9.61833L3.63222 8.43442L3.02323 8.0845L2.40515 9.15364ZM6.61581 12.0293C6.82714 12.1395 7.03733 12.2463 7.24526 12.3474L7.87812 11.2522L7.26913 10.8988L6.61581 12.0293ZM8.94612 13.0814C9.17448 13.1678 9.39944 13.2462 9.61987 13.3189L10.238 12.2486L9.62897 11.8986L8.94612 13.0814Z" fill="#6F6F6F"/>
<path fill-rule="evenodd" clip-rule="evenodd" d="M4.20805 14.5667C3.39793 13.1636 5.93278 10.1845 9.86848 7.91211C13.8042 5.63864 17.6524 4.93418 18.4625 6.33739C18.9113 7.11567 19.3601 7.89282 19.81 8.6711C20.6202 10.0743 18.0853 13.0533 14.1496 15.3268C10.2127 17.5992 6.36567 18.3036 5.55555 16.9004C5.10676 16.1233 4.65684 15.345 4.20805 14.5667Z" fill="#DDDDDD"/>
<path fill-rule="evenodd" clip-rule="evenodd" d="M9.8686 7.91211C13.8043 5.63864 17.6525 4.93418 18.4627 6.33739C19.2728 7.74055 16.7379 10.7196 12.8022 12.992C8.86536 15.2655 5.01829 15.9699 4.20817 14.5667C3.39806 13.1635 5.93286 10.1845 9.8686 7.91211Z" fill="#EFEFEF"/>
<path fill-rule="evenodd" clip-rule="evenodd" d="M10.5538 9.09917C13.6851 7.29038 16.5744 6.43143 17.005 7.17788C17.4367 7.9255 15.2485 9.99675 12.116 11.8044C8.9847 13.6132 6.09654 14.4721 5.66591 13.7257C5.23415 12.9781 7.42243 10.9069 10.5538 9.09917Z" fill="#DDDDDD"/>
<path d="M10.3322 15.6389L11.015 16.8216C10.7867 16.908 10.5617 16.9875 10.3401 17.0591L9.72205 15.9888L10.3322 15.6389ZM12.083 14.9924L12.7147 16.0877C12.9238 15.9865 13.134 15.8809 13.3442 15.7695L12.692 14.6402L12.083 14.9924ZM7.15881 16.6341L7.72233 17.6113C7.96323 17.5977 8.21772 17.5681 8.48584 17.5249L7.76776 16.282L7.15881 16.6341ZM18.7774 9.92505L18.1684 10.2773L18.8853 11.5202C19.0569 11.3101 19.2103 11.1044 19.3421 10.9033L18.7774 9.92505ZM14.2849 13.7199L14.9371 14.8504C15.1382 14.7231 15.3347 14.5948 15.5268 14.4652L14.8939 13.37L14.2849 13.7199ZM16.3289 12.1747L17.0129 13.3597C17.2015 13.204 17.3822 13.0495 17.5549 12.8939L16.9379 11.8247L16.3289 12.1747Z" fill="#6F6F6F"/>
</svg>
