<svg width="20" height="17" viewBox="0 0 20 17" fill="none" xmlns="http://www.w3.org/2000/svg">
<path fill-rule="evenodd" clip-rule="evenodd" d="M15.7517 9.62632C16.5618 8.22316 14.0281 5.24296 10.0924 2.97058C6.15552 0.698238 2.30841 -0.00617605 1.49834 1.39699C1.04841 2.17414 0.599625 2.95242 0.150836 3.7307C-0.659242 5.1339 1.87443 8.11292 5.81127 10.3853C9.74701 12.6576 13.5952 13.3632 14.4053 11.96C14.8541 11.1818 15.3029 10.4046 15.7517 9.62632Z" fill="#FE9923"/>
<path fill-rule="evenodd" clip-rule="evenodd" d="M15.7516 9.62641C16.3697 8.55727 15.0438 6.57122 12.6362 4.68176C11.9852 4.98512 11.3205 5.33051 10.6536 5.71567C8.31309 7.06661 6.40997 8.63793 5.25903 10.057C5.4397 10.1684 5.62376 10.2774 5.81122 10.3854C7.98813 11.642 10.1378 12.4191 11.7614 12.6259C12.4885 12.2964 13.2338 11.9147 13.9826 11.4829C14.353 11.2682 14.712 11.0489 15.0597 10.825L15.7516 9.62641Z" fill="#CE7C1D"/>
<path fill-rule="evenodd" clip-rule="evenodd" d="M10.0923 2.97062C6.15544 0.698236 2.30833 -0.00617796 1.49825 1.39699C0.68817 2.79902 3.22184 5.77921 7.15868 8.05159C11.0944 10.3239 14.9426 11.0295 15.7516 9.62632C16.5617 8.22316 14.028 5.24296 10.0923 2.97062Z" fill="#FECD3D"/>
<path fill-rule="evenodd" clip-rule="evenodd" d="M7.22925 8.09258C11.1411 10.332 14.9473 11.0205 15.7517 9.62641C16.3698 8.55727 15.0439 6.57122 12.6363 4.68176C11.9853 4.98512 11.3206 5.33051 10.6537 5.71567C9.36069 6.46102 8.20179 7.27454 7.22925 8.09258Z" fill="#CEA732"/>
<path fill-rule="evenodd" clip-rule="evenodd" d="M9.4062 4.158C6.27488 2.3503 3.38671 1.49022 2.95495 2.23784C2.52433 2.98546 4.71261 5.05671 7.84394 6.86436C10.9753 8.67202 13.8634 9.5321 14.2951 8.78452C14.7269 8.03804 12.5375 5.96679 9.4062 4.158Z" fill="#FEA832"/>
<path fill-rule="evenodd" clip-rule="evenodd" d="M8.40063 7.17685C11.3104 8.76864 13.8895 9.48782 14.2951 8.78454C14.6326 8.19942 13.3646 6.80306 11.2956 5.35669C11.082 5.47259 10.8673 5.59189 10.6537 5.71571C9.84587 6.18157 9.09145 6.67353 8.40063 7.17685Z" fill="#CE8829"/>
<path d="M12.8023 11.6941L12.2376 12.6712C11.9979 12.6565 11.7423 12.6281 11.4752 12.5849L12.1933 11.3408L12.8023 11.6941ZM4.43433 9.52518C4.62636 9.65471 4.82292 9.78307 5.02401 9.9092L5.6762 8.77983L5.06722 8.42987L4.43433 9.52518ZM0.61792 5.96209C0.75085 6.16323 0.903115 6.36998 1.07468 6.58018L1.79276 5.33721L1.18265 4.98499L0.61792 5.96209ZM2.40515 7.95381C2.57897 8.10834 2.75964 8.26401 2.94823 8.4185L3.63222 7.23459L3.02323 6.88467L2.40515 7.95381ZM6.61581 10.8295C6.82714 10.9397 7.03733 11.0465 7.24526 11.1476L7.87812 10.0523L7.26913 9.69897L6.61581 10.8295ZM8.94612 11.8816C9.17448 11.968 9.39944 12.0464 9.61987 12.119L10.238 11.0488L9.62897 10.6988L8.94612 11.8816Z" fill="#C85929"/>
<path fill-rule="evenodd" clip-rule="evenodd" d="M4.20793 13.3668C3.39781 11.9636 5.93266 8.98454 9.86836 6.71216C13.8041 4.43869 17.6523 3.73423 18.4624 5.13744C18.9112 5.91572 19.36 6.69287 19.8099 7.47115C20.62 8.87431 18.0852 11.8534 14.1495 14.1269C10.2126 16.3992 6.36555 17.1037 5.55543 15.7005C5.10664 14.9233 4.65672 14.1451 4.20793 13.3668Z" fill="#FE9923"/>
<path fill-rule="evenodd" clip-rule="evenodd" d="M9.8686 6.71216C13.8043 4.43869 17.6525 3.73423 18.4627 5.13744C19.2728 6.5406 16.7379 9.51966 12.8022 11.792C8.86536 14.0655 5.01829 14.77 4.20817 13.3668C3.39806 11.9636 5.93286 8.98454 9.8686 6.71216Z" fill="#FECD3D"/>
<path fill-rule="evenodd" clip-rule="evenodd" d="M10.5538 7.89934C13.6851 6.09055 16.5744 5.2316 17.005 5.97805C17.4367 6.72567 15.2485 8.79692 12.116 10.6046C8.9847 12.4134 6.09654 13.2723 5.66591 12.5259C5.23415 11.7783 7.42243 9.70703 10.5538 7.89934Z" fill="#FEA832"/>
<path d="M10.332 14.439L11.0149 15.6218C10.7865 15.7081 10.5616 15.7877 10.34 15.8592L9.72193 14.789L10.332 14.439ZM12.0829 13.7926L12.7146 14.8878C12.9237 14.7867 13.1339 14.681 13.3441 14.5697L12.6919 13.4403L12.0829 13.7926ZM7.15869 15.4343L7.72221 16.4115C7.9631 16.3978 8.2176 16.3683 8.48572 16.3251L7.76764 15.0821L7.15869 15.4343ZM18.7772 8.72522L18.1683 9.07745L18.8852 10.3204C19.0567 10.1103 19.2101 9.90459 19.3419 9.70346L18.7772 8.72522ZM14.2848 12.5201L14.937 13.6506C15.1381 13.5233 15.3346 13.3949 15.5267 13.2654L14.8938 12.1701L14.2848 12.5201ZM16.3288 10.9748L17.0128 12.1599C17.2014 12.0042 17.382 11.8497 17.5547 11.694L16.9378 10.6249L16.3288 10.9748Z" fill="#C85929"/>
</svg>
