<svg width="24" height="20" viewBox="0 0 24 20" fill="none" xmlns="http://www.w3.org/2000/svg">
<path d="M23.5012 19.171H0.498797C0.223312 19.171 0 18.9477 0 18.6722V7.89099H24V18.6722C24 18.9477 23.7767 19.171 23.5012 19.171Z" fill="#FFAF40"/>
<path d="M0.983109 10.6869C0.440156 10.6869 0 11.127 0 11.67V17.1515C0 17.6945 0.440156 18.1346 0.983109 18.1346C1.52606 18.1346 1.96622 17.6945 1.96622 17.1515V11.67C1.96622 11.127 1.52606 10.6869 0.983109 10.6869Z" fill="#FFC751"/>
<path d="M1.96622 14.0422V13.0438C1.96622 12.5008 1.52606 12.0607 0.983109 12.0607C0.440156 12.0607 0 12.5008 0 13.0438V14.0422C0 14.5852 0.440156 15.0253 0.983109 15.0253C1.52606 15.0253 1.96622 14.5852 1.96622 14.0422Z" fill="#FFE059"/>
<path d="M0 7.89099H24V9.8604H0V7.89099Z" fill="#FF993A"/>
<path d="M23.9999 8.9425V18.6722C23.9999 18.9476 23.7765 19.171 23.5011 19.171H12.604C17.6877 19.171 21.443 13.3038 22.9315 8.9425H23.9999Z" fill="#FF993A"/>
<path d="M23.9999 13.4707V18.6721C23.9999 18.9475 23.7765 19.1709 23.5011 19.1709H18.002C20.8775 19.1709 23.0378 16.009 23.9999 13.4707Z" fill="#F97C15"/>
<path d="M20.3595 0.828857H3.6405C3.6405 0.828857 0 0.886091 0 6.01998V8.94245H24V6.01998C24 0.886138 20.3595 0.828857 20.3595 0.828857Z" fill="#FFC751"/>
<path d="M18.0403 0.828857H5.95959C5.95959 0.828857 2.31909 0.886091 2.31909 6.01998V6.62589C2.31909 6.90137 2.5424 7.12469 2.81789 7.12469H21.1821C21.4575 7.12469 21.6809 6.90137 21.6809 6.62589V6.01998C21.6808 0.886138 18.0403 0.828857 18.0403 0.828857Z" fill="#B55434"/>
<path d="M21.681 6.01978V6.62583C21.681 6.90117 21.4575 7.12463 21.1822 7.12463H14.7258C16.9504 6.54703 18.593 4.52592 18.593 2.12025C18.593 1.6928 18.5411 1.27782 18.4433 0.880737C19.391 1.06974 21.681 1.94813 21.681 6.01978Z" fill="#A1412B"/>
<path d="M20.6694 2.29877H3.33032C3.57871 1.96507 3.85256 1.70721 4.12692 1.50818H19.8728C20.1472 1.70721 20.421 1.96512 20.6694 2.29877Z" fill="#A1412B"/>
<path d="M21.4939 4.17927H2.50586C2.57069 3.89145 2.65 3.62909 2.74127 3.38867H21.2584C21.3498 3.62914 21.4291 3.8915 21.4939 4.17927Z" fill="#A1412B"/>
<path d="M21.681 6.01984V6.05973H2.31885V6.01984C2.31885 5.7565 2.32832 5.50661 2.34679 5.26965H21.653C21.6715 5.50656 21.681 5.75645 21.681 6.01984Z" fill="#A1412B"/>
<path d="M7.20445 19.1711H2.31909V10.9326C2.31909 10.6571 2.5424 10.4338 2.81789 10.4338H6.7057C6.98119 10.4338 7.2045 10.6571 7.2045 10.9326V19.1711H7.20445Z" fill="#B55434"/>
<path d="M14.4426 10.9324V19.171H9.55737V10.9324C9.55737 10.657 9.78031 10.4336 10.0562 10.4336H13.9437C14.2196 10.4336 14.4426 10.657 14.4426 10.9324Z" fill="#B55434"/>
<path d="M14.4425 10.9324V12.4243C14.2485 12.8133 13.846 13.0807 13.3811 13.0807C13.2684 13.0807 13.1592 13.0647 13.0559 13.0353C12.9955 13.6338 12.4902 14.1012 11.8758 14.1012C11.2613 14.1012 10.756 13.6338 10.6951 13.0353C10.5919 13.0647 10.4832 13.0807 10.3704 13.0807C10.0557 13.0807 9.76939 12.9585 9.55737 12.7575V10.9324C9.55737 10.657 9.78031 10.4336 10.0562 10.4336H13.9437C14.2196 10.4336 14.4425 10.657 14.4425 10.9324Z" fill="#A1412B"/>
<path d="M14.4355 10.9324V19.171H10.4731C12.2309 17.5978 13.3372 15.3118 13.3372 12.7675C13.3372 11.9584 13.2255 11.1758 13.0165 10.4336H13.9367C14.212 10.4336 14.4355 10.657 14.4355 10.9324Z" fill="#A1412B"/>
<path d="M21.6808 19.1711H16.7954V10.9326C16.7954 10.6571 17.0187 10.4338 17.2942 10.4338H21.182C21.4575 10.4338 21.6808 10.6571 21.6808 10.9326V19.1711H21.6808Z" fill="#B55434"/>
<path d="M13.4518 9.8774V8.31777C14.0741 8.28121 14.5675 7.76511 14.5675 7.13361C14.5675 6.47835 14.0363 5.94721 13.3811 5.94721C13.2683 5.94721 13.1594 5.96329 13.056 5.99268C12.9956 5.39408 12.4902 4.92688 11.8757 4.92688C11.2612 4.92688 10.7557 5.39408 10.6953 5.99268C10.592 5.96329 10.483 5.94721 10.3702 5.94721C9.71503 5.94721 9.18384 6.4784 9.18384 7.13361C9.18384 7.76511 9.67729 8.28116 10.2996 8.31777V9.8774C9.67729 9.91396 9.18384 10.4301 9.18384 11.0616C9.18384 11.7168 9.71503 12.248 10.3702 12.248C10.483 12.248 10.592 12.2319 10.6953 12.2025C10.7557 12.8011 11.2612 13.2683 11.8757 13.2683C12.4902 13.2683 12.9956 12.801 13.056 12.2025C13.1594 12.2319 13.2683 12.248 13.3811 12.248C14.0363 12.248 14.5675 11.7168 14.5675 11.0616C14.5675 10.4301 14.0741 9.91396 13.4518 9.8774Z" fill="#FFF7C7"/>
<path d="M14.5678 11.0616C14.5678 11.717 14.0366 12.2483 13.3812 12.2483C13.2685 12.2483 13.1593 12.2318 13.056 12.2024C12.9956 12.8009 12.4903 13.2683 11.8759 13.2683C11.2614 13.2683 10.7561 12.801 10.6952 12.2024C10.592 12.2318 10.4833 12.2483 10.3705 12.2483C10.0353 12.2483 9.73255 12.1091 9.51758 11.8856C11.419 11.4198 12.8291 9.70441 12.8291 7.65939C12.8291 6.62491 12.4679 5.67419 11.8644 4.92752C11.8684 4.927 11.8719 4.927 11.8759 4.927C12.4904 4.927 12.9957 5.39439 13.056 5.99294C13.1593 5.9635 13.2685 5.94756 13.3813 5.94756C14.0367 5.94756 14.5679 6.4788 14.5679 7.13369C14.5679 7.76514 14.0741 8.28142 13.4521 8.31785V9.87756C14.0741 9.91389 14.5678 10.4302 14.5678 11.0616Z" fill="#FFF370"/>
<path d="M11.8758 10.2424C11.5563 10.2424 11.2974 9.98345 11.2974 9.66395V8.53112C11.2974 8.21162 11.5563 7.95264 11.8758 7.95264C12.1953 7.95264 12.4543 8.21162 12.4543 8.53112V9.66395C12.4543 9.98345 12.1953 10.2424 11.8758 10.2424Z" fill="#7F392C"/>
<path d="M14.5678 11.0615C14.5678 11.7169 14.0366 12.2482 13.3812 12.2482C13.2685 12.2482 13.1593 12.2317 13.056 12.2023C12.9956 12.8008 12.4903 13.2682 11.8759 13.2682C11.4619 13.2682 11.0973 13.0563 10.8853 12.7345C12.3472 12.528 13.5079 11.3843 13.7393 9.9303C14.2197 10.0819 14.5678 10.5313 14.5678 11.0615Z" fill="#FFE059"/>
<path d="M7.20458 10.9324V19.171H3.24219C4.99995 17.5978 6.10625 15.3118 6.10625 12.7675C6.10625 11.9584 5.9945 11.1758 5.78553 10.4336H6.70578C6.98113 10.4336 7.20458 10.657 7.20458 10.9324Z" fill="#A1412B"/>
<path d="M21.6809 10.9324V19.171H17.7185C19.4763 17.5978 20.5826 15.3118 20.5826 12.7675C20.5826 11.9584 20.4708 11.1758 20.2619 10.4336H21.1821C21.4574 10.4336 21.6809 10.657 21.6809 10.9324Z" fill="#A1412B"/>
<path d="M7.20454 10.9324V12.0981C7.20454 11.8227 6.98108 11.5993 6.70574 11.5993H2.81764C2.5423 11.5993 2.31885 11.8227 2.31885 12.0981V10.9324C2.31885 10.657 2.5423 10.4336 2.81764 10.4336H6.70574C6.98108 10.4336 7.20454 10.657 7.20454 10.9324Z" fill="#A1412B"/>
<path d="M21.6811 10.9324V12.0981C21.6811 11.8227 21.4576 11.5993 21.1823 11.5993H17.2942C17.0189 11.5993 16.7954 11.8227 16.7954 12.0981V10.9324C16.7954 10.657 17.0189 10.4336 17.2942 10.4336H21.1823C21.4576 10.4336 21.6811 10.657 21.6811 10.9324Z" fill="#A1412B"/>
<path d="M18.5896 2.29877C18.5921 2.23943 18.593 2.18004 18.593 2.12018C18.593 1.91318 18.5811 1.70866 18.5571 1.50818H19.8734C20.1473 1.70768 20.4211 1.96507 20.669 2.29877H18.5896Z" fill="#7F392C"/>
<path d="M21.494 4.17927H18.1665C18.2772 3.92586 18.3675 3.66153 18.4364 3.38867H21.2585C21.3498 3.62914 21.4291 3.8915 21.494 4.17927Z" fill="#7F392C"/>
<path d="M21.6812 6.01984V6.05973H16.771C17.0488 5.82381 17.3012 5.55897 17.5232 5.26965H21.6532C21.6716 5.50656 21.6812 5.75645 21.6812 6.01984Z" fill="#7F392C"/>
<path d="M7.19255 7.12464H2.8177C2.54222 7.12464 2.31891 6.90132 2.31891 6.62584V6.01984C2.31891 5.80009 2.32561 5.58976 2.33845 5.38834C2.38097 4.7207 1.85386 4.15515 1.18486 4.15515C0.583125 4.15515 0.0820312 4.61635 0.0322031 5.21603C0.0111562 5.46901 0 5.73667 0 6.01989V7.24571C0 8.18275 0.759609 8.94231 1.69659 8.94231H7.1707C7.6635 8.94231 8.08317 8.5591 8.1007 8.06664C8.11913 7.54956 7.70545 7.12464 7.19255 7.12464Z" fill="#FFE059"/>
<path d="M5.54862 7.12463H3.72668C3.22475 7.12463 2.81787 7.53151 2.81787 8.03345C2.81787 8.53538 3.22475 8.94226 3.72668 8.94226H5.54857C6.05051 8.94226 6.45739 8.53538 6.45739 8.03345C6.45743 7.53151 6.05051 7.12463 5.54862 7.12463Z" fill="#FFF370"/>
<path d="M20.9645 7.12463H16.1498C15.6478 7.12463 15.241 7.53151 15.241 8.03345C15.241 8.53538 15.6478 8.94226 16.1498 8.94226H20.9645C21.4664 8.94226 21.8733 8.53538 21.8733 8.03345C21.8733 7.53151 21.4663 7.12463 20.9645 7.12463Z" fill="#FFE059"/>
<path d="M19.7811 7.12463H18.7787C18.2767 7.12463 17.8699 7.53151 17.8699 8.03345C17.8699 8.53538 18.2767 8.94226 18.7787 8.94226H19.7811C20.283 8.94226 20.6899 8.53538 20.6899 8.03345C20.6899 7.53151 20.283 7.12463 19.7811 7.12463Z" fill="#FFF370"/>
</svg>
