<svg width="24" height="24" viewBox="0 0 24 24" fill="none" xmlns="http://www.w3.org/2000/svg">
<path d="M0.944092 3.37594V13.2289H23.0556V3.37594C23.0556 1.81121 21.7872 0.542725 20.2224 0.542725H3.77736C2.21258 0.542725 0.944092 1.81121 0.944092 3.37594Z" fill="#FF993A"/>
<path d="M23.0559 3.37616V13.2288H13.7751C18.4162 12.1568 21.8756 7.99851 21.8756 3.03163C21.8756 2.31444 21.8034 1.61413 21.6656 0.937256C22.4981 1.43085 23.0559 2.33835 23.0559 3.37616Z" fill="#F97C15"/>
<path d="M23.0558 8.3833V13.2288H20.054C21.4719 11.9486 22.5294 10.2766 23.0558 8.3833Z" fill="#E86300"/>
<path d="M2.58496 13.2289V3.37594C2.58496 2.71833 3.11995 2.18335 3.77755 2.18335H20.2227C20.8803 2.18335 21.4153 2.71838 21.4153 3.37594V13.2289H2.58496Z" fill="#E01152"/>
<path d="M23.5012 23.4576H0.498797C0.223312 23.4576 0 23.2343 0 22.9588V13.6978C0 13.4389 0.209859 13.229 0.46875 13.229H23.5312C23.7901 13.229 24 13.4389 24 13.6978V22.9588C24 23.2343 23.7767 23.4576 23.5012 23.4576Z" fill="#FFAF40"/>
<path d="M0.983109 14.9734C0.440156 14.9734 0 15.4135 0 15.9565V21.438C0 21.9809 0.440156 22.4211 0.983109 22.4211C1.52606 22.4211 1.96622 21.9809 1.96622 21.438V15.9565C1.96622 15.4135 1.52606 14.9734 0.983109 14.9734Z" fill="#FFC751"/>
<path d="M1.96622 18.3288V17.3304C1.96622 16.7874 1.52606 16.3473 0.983109 16.3473C0.440156 16.3473 0 16.7874 0 17.3304V18.3288C0 18.8718 0.440156 19.3119 0.983109 19.3119C1.52606 19.3119 1.96622 18.8718 1.96622 18.3288Z" fill="#FFE059"/>
<path d="M23.9999 13.6978V22.9587C23.9999 23.2342 23.7766 23.4575 23.5011 23.4575H12.604C17.6877 23.4575 21.443 17.5903 22.9315 13.229H23.5312C23.7901 13.229 23.9999 13.4389 23.9999 13.6978Z" fill="#FF993A"/>
<path d="M23.9999 17.7573V22.9588C23.9999 23.2341 23.7765 23.4576 23.5011 23.4576H18.002C20.8775 23.4575 23.0378 20.2957 23.9999 17.7573Z" fill="#F97C15"/>
<path d="M7.20445 23.4576H2.31909V15.2191C2.31909 14.9436 2.5424 14.7203 2.81789 14.7203H6.7057C6.98119 14.7203 7.2045 14.9436 7.2045 15.2191V23.4576H7.20445Z" fill="#B55434"/>
<path d="M14.4427 15.219V23.4572H9.55737V15.219C9.55737 14.9438 9.7805 14.7202 10.0561 14.7202H13.9439C14.2196 14.7202 14.4427 14.9438 14.4427 15.219Z" fill="#B55434"/>
<path d="M14.4427 15.219V16.193C14.2772 16.5244 13.9603 16.7715 13.5807 16.8347C13.3964 16.8657 13.2192 16.8526 13.0561 16.8062C12.9957 17.4047 12.4903 17.8721 11.8758 17.8721C11.2613 17.8721 10.756 17.4047 10.6955 16.8062C10.5324 16.8526 10.3552 16.8657 10.171 16.8347C9.93519 16.7954 9.72331 16.6852 9.55737 16.5277V15.219C9.55737 14.9438 9.7805 14.7202 10.0561 14.7202H13.9439C14.2196 14.7202 14.4427 14.9438 14.4427 15.219Z" fill="#A1412B"/>
<path d="M14.4355 15.2189V23.4575H10.4731C12.2309 21.8843 13.3372 19.5983 13.3372 17.054C13.3372 16.2449 13.2255 15.4623 13.0165 14.7201H13.9367C14.212 14.7201 14.4355 14.9435 14.4355 15.2189Z" fill="#A1412B"/>
<path d="M21.6808 23.4576H16.7954V15.2191C16.7954 14.9436 17.0187 14.7203 17.2942 14.7203H21.182C21.4575 14.7203 21.6808 14.9436 21.6808 15.2191V23.4576H21.6808Z" fill="#B55434"/>
<path d="M7.20458 15.2189V23.4575H3.24219C4.99995 21.8843 6.10625 19.5983 6.10625 17.054C6.10625 16.2449 5.9945 15.4623 5.78553 14.7201H6.70578C6.98113 14.7201 7.20458 14.9435 7.20458 15.2189Z" fill="#A1412B"/>
<path d="M21.6809 15.2189V23.4575H17.7185C19.4763 21.8843 20.5826 19.5983 20.5826 17.054C20.5826 16.2449 20.4708 15.4623 20.2619 14.7201H21.1821C21.4574 14.7201 21.6809 14.9435 21.6809 15.2189Z" fill="#A1412B"/>
<path d="M7.20454 15.2189V16.3846C7.20454 16.1092 6.98108 15.8858 6.70574 15.8858H2.81764C2.5423 15.8858 2.31885 16.1092 2.31885 16.3846V15.2189C2.31885 14.9435 2.5423 14.7201 2.81764 14.7201H6.70574C6.98108 14.7201 7.20454 14.9435 7.20454 15.2189Z" fill="#A1412B"/>
<path d="M21.6811 15.2189V16.3846C21.6811 16.1092 21.4576 15.8858 21.1823 15.8858H17.2942C17.0189 15.8858 16.7954 16.1092 16.7954 16.3846V15.2189C16.7954 14.9435 17.0189 14.7201 17.2942 14.7201H21.1823C21.4576 14.7201 21.6811 14.9435 21.6811 15.2189Z" fill="#A1412B"/>
<path d="M14.4428 15.2189V16.3846C14.4428 16.1092 14.2194 15.8858 13.944 15.8858H10.0559C9.78058 15.8858 9.55713 16.1092 9.55713 16.3846V15.2189C9.55713 14.9435 9.78058 14.7201 10.0559 14.7201H13.944C14.2194 14.7201 14.4428 14.9435 14.4428 15.2189Z" fill="#A1412B"/>
<path d="M21.4152 3.37607V13.2287H11.9807C16.3509 11.9195 19.5356 7.8667 19.5356 3.06998C19.5356 2.77139 19.5234 2.47561 19.4985 2.18311H20.2223C20.8799 2.18311 21.4152 2.71842 21.4152 3.37607Z" fill="#C40047"/>
<path d="M21.4152 9.42993V13.2287H18.2737C19.7493 12.4131 20.8846 11.0579 21.4152 9.42993Z" fill="#A80045"/>
<path d="M3.77769 0.54248C2.21272 0.54248 0.944092 1.81111 0.944092 3.37607V8.30995C0.944092 8.763 1.31136 9.13026 1.7644 9.13026C2.21745 9.13026 2.58472 8.763 2.58472 8.30995V3.37607C2.58472 2.7172 3.11881 2.18311 3.77769 2.18311H6.21936C6.6724 2.18311 7.03967 1.81584 7.03967 1.36279C7.03967 0.909746 6.6724 0.54248 6.21936 0.54248H3.77769Z" fill="#FFAF40"/>
<path d="M2.58472 6.6461V4.65125C2.58472 4.1982 2.21745 3.83093 1.7644 3.83093C1.31136 3.83093 0.944092 4.1982 0.944092 4.65125V6.6461C0.944092 7.09915 1.31136 7.46642 1.7644 7.46642C2.21745 7.46637 2.58472 7.0991 2.58472 6.6461Z" fill="#FFC751"/>
<path d="M18.1583 0.54248H12.6638C12.2108 0.54248 11.8435 0.909746 11.8435 1.36279C11.8435 1.81584 12.2108 2.18311 12.6638 2.18311H18.1583C18.6113 2.18311 18.9786 1.81584 18.9786 1.36279C18.9786 0.909746 18.6113 0.54248 18.1583 0.54248Z" fill="#FFAF40"/>
<path d="M10.7515 2.18335H5.25708C4.80403 2.18335 4.43677 2.55062 4.43677 3.00366C4.43677 3.45671 4.80403 3.82397 5.25708 3.82397H10.7515C11.2046 3.82397 11.5718 3.45671 11.5718 3.00366C11.5718 2.55062 11.2046 2.18335 10.7515 2.18335Z" fill="#FE255F"/>
<path d="M7.96541 2.18335H6.71802C6.26497 2.18335 5.89771 2.55062 5.89771 3.00366C5.89771 3.45671 6.26497 3.82397 6.71802 3.82397H7.96541C8.41845 3.82397 8.78572 3.45671 8.78572 3.00366C8.78572 2.55062 8.41845 2.18335 7.96541 2.18335Z" fill="#FC709B"/>
<path d="M15.9752 0.54248H13.8557C13.4027 0.54248 13.0354 0.909746 13.0354 1.36279C13.0354 1.81584 13.4027 2.18311 13.8557 2.18311H15.9752C16.4282 2.18311 16.7955 1.81584 16.7955 1.36279C16.7955 0.909746 16.4282 0.54248 15.9752 0.54248Z" fill="#FFC751"/>
<path d="M6.81482 13.2288H4.35084C4.04221 13.2288 3.79199 12.9786 3.79199 12.6699C3.79199 12.3613 4.04221 12.1111 4.35084 12.1111H6.81487C7.12349 12.1111 7.37371 12.3613 7.37371 12.6699C7.37366 12.9786 7.12349 13.2288 6.81482 13.2288Z" fill="#FFC751"/>
<path d="M5.81247 12.1111H5.03467C4.72605 12.1111 4.47583 12.3613 4.47583 12.6699C4.47583 12.9786 4.72605 13.2288 5.03467 13.2288H5.81247C6.1211 13.2288 6.37131 12.9786 6.37131 12.6699C6.37131 12.3613 6.1211 12.1111 5.81247 12.1111Z" fill="#FFE059"/>
<path d="M6.81482 12.1111H4.35084C4.04221 12.1111 3.79199 11.8609 3.79199 11.5523C3.79199 11.2436 4.04221 10.9934 4.35084 10.9934H6.81487C7.12349 10.9934 7.37371 11.2436 7.37371 11.5523C7.37366 11.8609 7.12349 12.1111 6.81482 12.1111Z" fill="#FF993A"/>
<path d="M5.81247 10.9934H5.03467C4.72605 10.9934 4.47583 11.2436 4.47583 11.5523C4.47583 11.8609 4.72605 12.1111 5.03467 12.1111H5.81247C6.1211 12.1111 6.37131 11.8609 6.37131 11.5523C6.37131 11.2436 6.1211 10.9934 5.81247 10.9934Z" fill="#FFAF40"/>
<path d="M6.81482 10.9934H4.35084C4.04221 10.9934 3.79199 10.7432 3.79199 10.4346C3.79199 10.126 4.04221 9.87573 4.35084 9.87573H6.81487C7.12349 9.87573 7.37371 10.126 7.37371 10.4346C7.37366 10.7432 7.12349 10.9934 6.81482 10.9934Z" fill="#FFC751"/>
<path d="M5.81247 9.87573H5.03467C4.72605 9.87573 4.47583 10.126 4.47583 10.4346C4.47583 10.7432 4.72605 10.9934 5.03467 10.9934H5.81247C6.1211 10.9934 6.37131 10.7432 6.37131 10.4346C6.37131 10.126 6.1211 9.87573 5.81247 9.87573Z" fill="#FFE059"/>
<path d="M9.39421 13.2288H6.93018C6.62156 13.2288 6.37134 12.9786 6.37134 12.6699C6.37134 12.3613 6.62156 12.1111 6.93018 12.1111H9.39421C9.70284 12.1111 9.95306 12.3613 9.95306 12.6699C9.95306 12.9786 9.70284 13.2288 9.39421 13.2288Z" fill="#FF993A"/>
<path d="M8.39182 12.1111H7.61402C7.30539 12.1111 7.05518 12.3613 7.05518 12.6699C7.05518 12.9786 7.30539 13.2288 7.61402 13.2288H8.39182C8.70044 13.2288 8.95066 12.9786 8.95066 12.6699C8.95066 12.3613 8.70044 12.1111 8.39182 12.1111Z" fill="#FFAF40"/>
<path d="M9.39421 12.1111H6.93018C6.62156 12.1111 6.37134 11.8609 6.37134 11.5523C6.37134 11.2436 6.62156 10.9934 6.93018 10.9934H9.39421C9.70284 10.9934 9.95306 11.2436 9.95306 11.5523C9.95306 11.8609 9.70284 12.1111 9.39421 12.1111Z" fill="#FFC751"/>
<path d="M8.39182 10.9934H7.61402C7.30539 10.9934 7.05518 11.2436 7.05518 11.5523C7.05518 11.8609 7.30539 12.1111 7.61402 12.1111H8.39182C8.70044 12.1111 8.95066 11.8609 8.95066 11.5523C8.95066 11.2436 8.70044 10.9934 8.39182 10.9934Z" fill="#FFE059"/>
<path d="M9.39421 10.9934H6.93018C6.62156 10.9934 6.37134 10.7432 6.37134 10.4346C6.37134 10.126 6.62156 9.87573 6.93018 9.87573H9.39421C9.70284 9.87573 9.95306 10.126 9.95306 10.4346C9.95306 10.7432 9.70284 10.9934 9.39421 10.9934Z" fill="#FF993A"/>
<path d="M8.39182 9.87573H7.61402C7.30539 9.87573 7.05518 10.126 7.05518 10.4346C7.05518 10.7432 7.30539 10.9934 7.61402 10.9934H8.39182C8.70044 10.9934 8.95066 10.7432 8.95066 10.4346C8.95066 10.126 8.70044 9.87573 8.39182 9.87573Z" fill="#FFAF40"/>
<path d="M9.39421 9.87574H6.93018C6.62156 9.87574 6.37134 9.62553 6.37134 9.3169C6.37134 9.00828 6.62156 8.75806 6.93018 8.75806H9.39421C9.70284 8.75806 9.95306 9.00828 9.95306 9.3169C9.95306 9.62557 9.70284 9.87574 9.39421 9.87574Z" fill="#FFC751"/>
<path d="M8.39182 8.75806H7.61402C7.30539 8.75806 7.05518 9.00828 7.05518 9.3169C7.05518 9.62553 7.30539 9.87574 7.61402 9.87574H8.39182C8.70044 9.87574 8.95066 9.62553 8.95066 9.3169C8.95066 9.00823 8.70044 8.75806 8.39182 8.75806Z" fill="#FFE059"/>
<path d="M11.9423 13.2288H9.47828C9.16965 13.2288 8.91943 12.9786 8.91943 12.6699C8.91943 12.3613 9.16965 12.1111 9.47828 12.1111H11.9423C12.2509 12.1111 12.5012 12.3613 12.5012 12.6699C12.5012 12.9786 12.251 13.2288 11.9423 13.2288Z" fill="#FFC751"/>
<path d="M10.9399 12.1111H10.1621C9.85349 12.1111 9.60327 12.3613 9.60327 12.6699C9.60327 12.9786 9.85349 13.2288 10.1621 13.2288H10.9399C11.2485 13.2288 11.4988 12.9786 11.4988 12.6699C11.4988 12.3613 11.2485 12.1111 10.9399 12.1111Z" fill="#FFE059"/>
<path d="M11.9423 12.1111H9.47828C9.16965 12.1111 8.91943 11.8609 8.91943 11.5523C8.91943 11.2436 9.16965 10.9934 9.47828 10.9934H11.9423C12.2509 10.9934 12.5012 11.2436 12.5012 11.5523C12.5012 11.8609 12.251 12.1111 11.9423 12.1111Z" fill="#FF993A"/>
<path d="M10.9399 10.9934H10.1621C9.85349 10.9934 9.60327 11.2436 9.60327 11.5523C9.60327 11.8609 9.85349 12.1111 10.1621 12.1111H10.9399C11.2485 12.1111 11.4988 11.8609 11.4988 11.5523C11.4988 11.2436 11.2485 10.9934 10.9399 10.9934Z" fill="#FFAF40"/>
<path d="M11.9423 10.9934H9.47828C9.16965 10.9934 8.91943 10.7432 8.91943 10.4346C8.91943 10.126 9.16965 9.87573 9.47828 9.87573H11.9423C12.2509 9.87573 12.5012 10.126 12.5012 10.4346C12.5012 10.7432 12.251 10.9934 11.9423 10.9934Z" fill="#FFC751"/>
<path d="M10.9399 9.87573H10.1621C9.85349 9.87573 9.60327 10.126 9.60327 10.4346C9.60327 10.7432 9.85349 10.9934 10.1621 10.9934H10.9399C11.2485 10.9934 11.4988 10.7432 11.4988 10.4346C11.4988 10.126 11.2485 9.87573 10.9399 9.87573Z" fill="#FFE059"/>
<path d="M11.9423 9.87574H9.47828C9.16965 9.87574 8.91943 9.62553 8.91943 9.3169C8.91943 9.00828 9.16965 8.75806 9.47828 8.75806H11.9423C12.2509 8.75806 12.5012 9.00828 12.5012 9.3169C12.5012 9.62557 12.251 9.87574 11.9423 9.87574Z" fill="#FF993A"/>
<path d="M10.9399 8.75806H10.1621C9.85349 8.75806 9.60327 9.00828 9.60327 9.3169C9.60327 9.62553 9.85349 9.87574 10.1621 9.87574H10.9399C11.2485 9.87574 11.4988 9.62553 11.4988 9.3169C11.4988 9.00823 11.2485 8.75806 10.9399 8.75806Z" fill="#FFAF40"/>
<path d="M11.9423 8.75807H9.47828C9.16965 8.75807 8.91943 8.50785 8.91943 8.19923C8.91943 7.8906 9.16965 7.64038 9.47828 7.64038H11.9423C12.2509 7.64038 12.5012 7.8906 12.5012 8.19923C12.5012 8.50785 12.251 8.75807 11.9423 8.75807Z" fill="#FFC751"/>
<path d="M10.9399 7.64038H10.1621C9.85349 7.64038 9.60327 7.8906 9.60327 8.19923C9.60327 8.50785 9.85349 8.75807 10.1621 8.75807H10.9399C11.2485 8.75807 11.4988 8.50785 11.4988 8.19923C11.4988 7.8906 11.2485 7.64038 10.9399 7.64038Z" fill="#FFE059"/>
<path d="M11.9423 7.64039H9.47828C9.16965 7.64039 8.91943 7.39017 8.91943 7.08155C8.91943 6.77292 9.16965 6.52271 9.47828 6.52271H11.9423C12.2509 6.52271 12.5012 6.77292 12.5012 7.08155C12.5012 7.39022 12.251 7.64039 11.9423 7.64039Z" fill="#FF993A"/>
<path d="M10.9399 6.52271H10.1621C9.85349 6.52271 9.60327 6.77292 9.60327 7.08155C9.60327 7.39017 9.85349 7.64039 10.1621 7.64039H10.9399C11.2485 7.64039 11.4988 7.39017 11.4988 7.08155C11.4988 6.77292 11.2485 6.52271 10.9399 6.52271Z" fill="#FFAF40"/>
<path d="M14.5216 13.2288H12.0576C11.749 13.2288 11.4988 12.9786 11.4988 12.6699C11.4988 12.3613 11.749 12.1111 12.0576 12.1111H14.5217C14.8303 12.1111 15.0805 12.3613 15.0805 12.6699C15.0805 12.9786 14.8302 13.2288 14.5216 13.2288Z" fill="#FF993A"/>
<path d="M13.5193 12.1111H12.7415C12.4328 12.1111 12.1826 12.3613 12.1826 12.6699C12.1826 12.9786 12.4328 13.2288 12.7415 13.2288H13.5193C13.8279 13.2288 14.0781 12.9786 14.0781 12.6699C14.0781 12.3613 13.8279 12.1111 13.5193 12.1111Z" fill="#FFAF40"/>
<path d="M14.5216 12.1111H12.0576C11.749 12.1111 11.4988 11.8609 11.4988 11.5523C11.4988 11.2436 11.749 10.9934 12.0576 10.9934H14.5217C14.8303 10.9934 15.0805 11.2436 15.0805 11.5523C15.0805 11.8609 14.8302 12.1111 14.5216 12.1111Z" fill="#FFC751"/>
<path d="M13.5193 10.9934H12.7415C12.4328 10.9934 12.1826 11.2436 12.1826 11.5523C12.1826 11.8609 12.4328 12.1111 12.7415 12.1111H13.5193C13.8279 12.1111 14.0781 11.8609 14.0781 11.5523C14.0781 11.2436 13.8279 10.9934 13.5193 10.9934Z" fill="#FFE059"/>
<path d="M14.5216 10.9934H12.0576C11.749 10.9934 11.4988 10.7432 11.4988 10.4346C11.4988 10.126 11.749 9.87573 12.0576 9.87573H14.5217C14.8303 9.87573 15.0805 10.126 15.0805 10.4346C15.0805 10.7432 14.8302 10.9934 14.5216 10.9934Z" fill="#FF993A"/>
<path d="M13.5193 9.87573H12.7415C12.4328 9.87573 12.1826 10.126 12.1826 10.4346C12.1826 10.7432 12.4328 10.9934 12.7415 10.9934H13.5193C13.8279 10.9934 14.0781 10.7432 14.0781 10.4346C14.0781 10.126 13.8279 9.87573 13.5193 9.87573Z" fill="#FFAF40"/>
<path d="M14.5216 9.87574H12.0576C11.749 9.87574 11.4988 9.62553 11.4988 9.3169C11.4988 9.00828 11.749 8.75806 12.0576 8.75806H14.5217C14.8303 8.75806 15.0805 9.00828 15.0805 9.3169C15.0805 9.62557 14.8302 9.87574 14.5216 9.87574Z" fill="#FFC751"/>
<path d="M13.5193 8.75806H12.7415C12.4328 8.75806 12.1826 9.00828 12.1826 9.3169C12.1826 9.62553 12.4328 9.87574 12.7415 9.87574H13.5193C13.8279 9.87574 14.0781 9.62553 14.0781 9.3169C14.0781 9.00823 13.8279 8.75806 13.5193 8.75806Z" fill="#FFE059"/>
<path d="M14.5216 8.75807H12.0576C11.749 8.75807 11.4988 8.50785 11.4988 8.19923C11.4988 7.8906 11.749 7.64038 12.0576 7.64038H14.5217C14.8303 7.64038 15.0805 7.8906 15.0805 8.19923C15.0805 8.50785 14.8302 8.75807 14.5216 8.75807Z" fill="#FF993A"/>
<path d="M13.5193 7.64038H12.7415C12.4328 7.64038 12.1826 7.8906 12.1826 8.19923C12.1826 8.50785 12.4328 8.75807 12.7415 8.75807H13.5193C13.8279 8.75807 14.0781 8.50785 14.0781 8.19923C14.0781 7.8906 13.8279 7.64038 13.5193 7.64038Z" fill="#FFAF40"/>
<path d="M17.07 13.2288H14.606C14.2973 13.2288 14.0471 12.9786 14.0471 12.6699C14.0471 12.3613 14.2973 12.1111 14.606 12.1111H17.07C17.3786 12.1111 17.6288 12.3613 17.6288 12.6699C17.6288 12.9786 17.3787 13.2288 17.07 13.2288Z" fill="#FFC751"/>
<path d="M16.0676 12.1111H15.2898C14.9812 12.1111 14.731 12.3613 14.731 12.6699C14.731 12.9786 14.9812 13.2288 15.2898 13.2288H16.0676C16.3762 13.2288 16.6264 12.9786 16.6264 12.6699C16.6264 12.3613 16.3762 12.1111 16.0676 12.1111Z" fill="#FFE059"/>
<path d="M17.07 12.1111H14.606C14.2973 12.1111 14.0471 11.8609 14.0471 11.5523C14.0471 11.2436 14.2973 10.9934 14.606 10.9934H17.07C17.3786 10.9934 17.6288 11.2436 17.6288 11.5523C17.6288 11.8609 17.3787 12.1111 17.07 12.1111Z" fill="#FF993A"/>
<path d="M16.0676 10.9934H15.2898C14.9812 10.9934 14.731 11.2436 14.731 11.5523C14.731 11.8609 14.9812 12.1111 15.2898 12.1111H16.0676C16.3762 12.1111 16.6264 11.8609 16.6264 11.5523C16.6264 11.2436 16.3762 10.9934 16.0676 10.9934Z" fill="#FFAF40"/>
<path d="M17.07 10.9934H14.606C14.2973 10.9934 14.0471 10.7432 14.0471 10.4346C14.0471 10.126 14.2973 9.87573 14.606 9.87573H17.07C17.3786 9.87573 17.6288 10.126 17.6288 10.4346C17.6288 10.7432 17.3787 10.9934 17.07 10.9934Z" fill="#FFC751"/>
<path d="M16.0676 9.87573H15.2898C14.9812 9.87573 14.731 10.126 14.731 10.4346C14.731 10.7432 14.9812 10.9934 15.2898 10.9934H16.0676C16.3762 10.9934 16.6264 10.7432 16.6264 10.4346C16.6264 10.126 16.3762 9.87573 16.0676 9.87573Z" fill="#FFE059"/>
<path d="M17.07 9.87574H14.606C14.2973 9.87574 14.0471 9.62553 14.0471 9.3169C14.0471 9.00828 14.2973 8.75806 14.606 8.75806H17.07C17.3786 8.75806 17.6288 9.00828 17.6288 9.3169C17.6288 9.62557 17.3787 9.87574 17.07 9.87574Z" fill="#FF993A"/>
<path d="M16.0676 8.75806H15.2898C14.9812 8.75806 14.731 9.00828 14.731 9.3169C14.731 9.62553 14.9812 9.87574 15.2898 9.87574H16.0676C16.3762 9.87574 16.6264 9.62553 16.6264 9.3169C16.6264 9.00823 16.3762 8.75806 16.0676 8.75806Z" fill="#FFAF40"/>
<path d="M19.6493 13.2288H17.1853C16.8767 13.2288 16.6265 12.9786 16.6265 12.6699C16.6265 12.3613 16.8767 12.1111 17.1853 12.1111H19.6493C19.958 12.1111 20.2082 12.3613 20.2082 12.6699C20.2082 12.9786 19.958 13.2288 19.6493 13.2288Z" fill="#FF993A"/>
<path d="M18.6469 12.1111H17.8691C17.5605 12.1111 17.3103 12.3613 17.3103 12.6699C17.3103 12.9786 17.5605 13.2288 17.8691 13.2288H18.6469C18.9556 13.2288 19.2058 12.9786 19.2058 12.6699C19.2058 12.3613 18.9556 12.1111 18.6469 12.1111Z" fill="#FFAF40"/>
<path d="M19.6493 12.1111H17.1853C16.8767 12.1111 16.6265 11.8609 16.6265 11.5523C16.6265 11.2436 16.8767 10.9934 17.1853 10.9934H19.6493C19.958 10.9934 20.2082 11.2436 20.2082 11.5523C20.2082 11.8609 19.958 12.1111 19.6493 12.1111Z" fill="#FFC751"/>
<path d="M18.6469 10.9934H17.8691C17.5605 10.9934 17.3103 11.2436 17.3103 11.5523C17.3103 11.8609 17.5605 12.1111 17.8691 12.1111H18.6469C18.9556 12.1111 19.2058 11.8609 19.2058 11.5523C19.2058 11.2436 18.9556 10.9934 18.6469 10.9934Z" fill="#FFE059"/>
<path d="M17.349 5.82769C17.4486 5.76212 17.4486 5.61643 17.349 5.55085C17.092 5.38158 16.8481 5.18462 16.6216 4.9598C16.3951 4.73499 16.1966 4.49293 16.026 4.23793C15.9599 4.13912 15.8131 4.13912 15.747 4.23793C15.5765 4.49297 15.378 4.73504 15.1514 4.9598C14.9249 5.18457 14.681 5.38154 14.424 5.55085C14.3245 5.61643 14.3245 5.76212 14.424 5.82769C14.681 5.99696 14.9249 6.19393 15.1514 6.41874C15.3779 6.64355 15.5764 6.88562 15.747 7.14061C15.8131 7.23943 15.9599 7.23943 16.026 7.14061C16.1966 6.88557 16.395 6.64351 16.6216 6.41874C16.8481 6.19393 17.092 5.99696 17.349 5.82769Z" fill="#FFE059"/>
<path d="M17.349 5.82762C17.092 5.99694 16.8482 6.19381 16.6215 6.41872C16.3949 6.64363 16.1965 6.88564 16.0259 7.14064C15.9598 7.23931 15.8132 7.23931 15.7471 7.14064C15.5765 6.88564 15.3781 6.64363 15.1515 6.41872C15.122 6.38947 15.0921 6.36059 15.0618 6.33219C15.1018 6.33552 15.1422 6.3372 15.1831 6.3372C15.9606 6.3372 16.5946 5.72441 16.6207 4.95898L16.6215 4.95983C16.8482 5.18473 17.092 5.38161 17.349 5.55092C17.4484 5.6165 17.4484 5.762 17.349 5.82762Z" fill="#FFC751"/>
<path d="M19.192 7.46624C19.2578 7.42293 19.2578 7.32669 19.192 7.28338C19.0222 7.17153 18.8611 7.04146 18.7114 6.89291C18.5618 6.74441 18.4307 6.58447 18.318 6.416C18.2744 6.35075 18.1774 6.35075 18.1338 6.416C18.0211 6.58447 17.89 6.74441 17.7403 6.89291C17.5907 7.04141 17.4296 7.17153 17.2598 7.28338C17.194 7.32669 17.194 7.42293 17.2598 7.46624C17.4296 7.57808 17.5907 7.70816 17.7403 7.85666C17.89 8.00516 18.0211 8.1651 18.1338 8.33357C18.1774 8.39882 18.2744 8.39882 18.318 8.33357C18.4307 8.1651 18.5618 8.00516 18.7114 7.85666C18.8611 7.70816 19.0222 7.57803 19.192 7.46624Z" fill="#FFE059"/>
<path d="M19.1921 7.46613C19.0224 7.57797 18.8613 7.70805 18.7116 7.8566C18.5618 8.00515 18.4308 8.16504 18.3181 8.33351C18.2744 8.39866 18.1776 8.39866 18.1339 8.33351C18.0212 8.16504 17.8901 8.00515 17.7404 7.8566C17.7209 7.83729 17.7012 7.81821 17.6812 7.79946C17.7076 7.80166 17.7343 7.80279 17.7613 7.80279C18.275 7.80279 18.6937 7.39797 18.711 6.89233C18.7113 6.89262 18.7113 6.89262 18.7116 6.8929C18.8613 7.04144 19.0224 7.17152 19.1921 7.28337C19.2578 7.32668 19.2578 7.42277 19.1921 7.46613Z" fill="#FFC751"/>
<path d="M6.66494 7.6329C6.72925 7.59053 6.72925 7.49649 6.66494 7.45412C6.49896 7.34481 6.34146 7.21759 6.19516 7.07242C6.04886 6.92724 5.92071 6.77092 5.81055 6.6062C5.76785 6.5424 5.67306 6.5424 5.63041 6.6062C5.52025 6.77092 5.39205 6.92724 5.2458 7.07242C5.0995 7.21759 4.94196 7.34481 4.77602 7.45412C4.71171 7.49649 4.71171 7.59053 4.77602 7.6329C4.942 7.74221 5.0995 7.86943 5.2458 8.0146C5.3921 8.15978 5.52025 8.3161 5.63041 8.48082C5.67311 8.54462 5.76789 8.54462 5.81055 8.48082C5.92071 8.3161 6.04891 8.15978 6.19516 8.0146C6.34146 7.86943 6.499 7.74221 6.66494 7.6329Z" fill="#FFE059"/>
<path d="M6.66487 7.63285C6.49893 7.74221 6.34143 7.86934 6.19509 8.0146C6.04874 8.15987 5.92059 8.31615 5.81043 8.48082C5.76773 8.54452 5.67304 8.54452 5.63034 8.48082C5.52018 8.31615 5.39203 8.15982 5.24568 8.0146C5.22665 7.99571 5.20734 7.97706 5.18774 7.95873C5.21357 7.96088 5.23968 7.96196 5.26607 7.96196C5.76824 7.96196 6.17765 7.5662 6.19453 7.0719L6.19509 7.07246C6.34143 7.21768 6.49893 7.34485 6.66487 7.45421C6.72909 7.49654 6.72909 7.59048 6.66487 7.63285Z" fill="#FFC751"/>
<path d="M13.4518 13.8006V13.5013C13.4518 13.2425 13.2419 13.0326 12.983 13.0326H10.7684C10.5095 13.0326 10.2996 13.2425 10.2996 13.5013V13.8006C9.6526 13.8387 9.14489 14.395 9.18619 15.0604C9.21999 15.6053 9.63249 16.0642 10.1709 16.1545C10.355 16.1853 10.5322 16.1721 10.6953 16.1257C10.7558 16.7243 11.2612 17.1915 11.8757 17.1915C12.4902 17.1915 12.9956 16.7243 13.056 16.1257C13.2192 16.1721 13.3964 16.1853 13.5805 16.1545C14.1189 16.0642 14.5314 15.6053 14.5652 15.0604C14.6065 14.3949 14.0988 13.8387 13.4518 13.8006Z" fill="#FFF7C7"/>
<path d="M13.452 13.8006V13.5013C13.452 13.2425 13.2422 13.0326 12.9833 13.0326H12.5815C12.0973 14.4033 10.9462 15.4587 9.51758 15.8088C9.73255 16.0322 10.0353 16.1714 10.3705 16.1714C10.4833 16.1714 10.592 16.1549 10.6952 16.1255C10.7561 16.724 11.2613 17.1914 11.8759 17.1914C12.4904 17.1914 12.9957 16.7241 13.056 16.1255C13.1593 16.1549 13.2685 16.1714 13.3812 16.1714C14.0366 16.1714 14.5678 15.6402 14.5678 14.9847C14.5678 14.3533 14.074 13.8371 13.452 13.8006Z" fill="#FFF370"/>
<path d="M11.2974 13.0326V13.5559C11.2974 13.8754 11.5563 14.1344 11.8758 14.1344C12.1953 14.1344 12.4543 13.8754 12.4543 13.5559V13.0326H11.2974Z" fill="#7F392C"/>
<path d="M14.5676 14.9847C14.5676 15.6402 14.0364 16.1714 13.381 16.1714C13.2682 16.1714 13.159 16.1549 13.0557 16.1255C12.9954 16.724 12.4901 17.1914 11.8756 17.1914C11.4616 17.1914 11.097 16.9795 10.885 16.6577C12.347 16.4512 13.5077 15.3075 13.7391 13.8535C14.2195 14.0052 14.5676 14.4545 14.5676 14.9847Z" fill="#FFE059"/>
</svg>
